<?xml version="1.0" encoding="UTF-8" standalone="no"?><svg xmlns="http://www.w3.org/2000/svg" xmlns:xlink="http://www.w3.org/1999/xlink" contentStyleType="text/css" height="550px" preserveAspectRatio="none" style="width:1581px;height:550px;background:#FFFFFF;" version="1.1" viewBox="0 0 1581 550" width="1581px" zoomAndPan="magnify"><defs/><g><g id="cluster_com.smartplg.jiangsu.suzhou.jcyjcfx.algorithm"><path d="M57.5866,6 L423.5866,6 A3.75,3.75 0 0 1 426.0866,8.5 L433.0866,28.2969 L1571.5866,28.2969 A2.5,2.5 0 0 1 1574.0866,30.7969 L1574.0866,540.5 A2.5,2.5 0 0 1 1571.5866,543 L57.5866,543 A2.5,2.5 0 0 1 55.0866,540.5 L55.0866,8.5 A2.5,2.5 0 0 1 57.5866,6 " fill="none" style="stroke:#000000;stroke-width:1.5;"/><line style="stroke:#000000;stroke-width:1.5;" x1="55.0866" x2="433.0866" y1="28.2969" y2="28.2969"/><text fill="#000000" font-family="sans-serif" font-size="14" font-weight="bold" lengthAdjust="spacing" textLength="365" x="59.0866" y="20.9951">com.smartplg.jiangsu.suzhou.jcyjcfx.algorithm</text></g><g id="elem_ArithmeticFactor"><rect codeLine="3" fill="#F1F1F1" height="80.5938" id="ArithmeticFactor" rx="2.5" ry="2.5" style="stroke:#181818;stroke-width:0.5;" width="168" x="443.0866" y="446"/><ellipse cx="468.8866" cy="462" fill="#ADD1B2" rx="11" ry="11" style="stroke:#181818;stroke-width:1.0;"/><path d="M471.8554,467.6406 Q471.2772,467.9375 470.6366,468.0781 Q469.996,468.2344 469.2929,468.2344 Q466.7929,468.2344 465.4647,466.5938 Q464.1522,464.9375 464.1522,461.8125 Q464.1522,458.6875 465.4647,457.0313 Q466.7929,455.375 469.2929,455.375 Q469.996,455.375 470.6366,455.5313 Q471.2929,455.6875 471.8554,455.9844 L471.8554,458.7031 Q471.2304,458.125 470.6366,457.8594 Q470.0429,457.5781 469.4179,457.5781 Q468.0741,457.5781 467.3866,458.6563 Q466.6991,459.7188 466.6991,461.8125 Q466.6991,463.9063 467.3866,464.9844 Q468.0741,466.0469 469.4179,466.0469 Q470.0429,466.0469 470.6366,465.7813 Q471.2304,465.5 471.8554,464.9219 L471.8554,467.6406 Z " fill="#000000"/><text fill="#000000" font-family="sans-serif" font-size="14" lengthAdjust="spacing" textLength="112" x="485.2866" y="466.8467">ArithmeticFactor</text><line style="stroke:#181818;stroke-width:0.5;" x1="444.0866" x2="610.0866" y1="478" y2="478"/><rect fill="none" height="6" style="stroke:#C82930;stroke-width:1.0;" width="6" x="451.0866" y="488.6484"/><text fill="#000000" font-family="sans-serif" font-size="14" lengthAdjust="spacing" textLength="117" x="463.0866" y="494.9951">Double molecule</text><rect fill="none" height="6" style="stroke:#C82930;stroke-width:1.0;" width="6" x="451.0866" y="504.9453"/><text fill="#000000" font-family="sans-serif" font-size="14" lengthAdjust="spacing" textLength="142" x="463.0866" y="511.292">Double denominator</text><line style="stroke:#181818;stroke-width:0.5;" x1="444.0866" x2="610.0866" y1="518.5938" y2="518.5938"/></g><g id="elem_RateCalculation"><rect codeLine="7" fill="#F1F1F1" height="64.2969" id="RateCalculation" rx="2.5" ry="2.5" style="stroke:#181818;stroke-width:0.5;" width="270" x="231.0866" y="41"/><ellipse cx="308.3366" cy="57" fill="#B4A7E5" rx="11" ry="11" style="stroke:#181818;stroke-width:1.0;"/><path d="M304.2585,52.7656 L304.2585,50.6094 L311.6491,50.6094 L311.6491,52.7656 L309.1804,52.7656 L309.1804,60.8438 L311.6491,60.8438 L311.6491,63 L304.2585,63 L304.2585,60.8438 L306.7272,60.8438 L306.7272,52.7656 L304.2585,52.7656 Z " fill="#000000"/><text fill="#000000" font-family="sans-serif" font-size="14" font-style="italic" lengthAdjust="spacing" textLength="107" x="328.8366" y="61.8467">RateCalculation</text><line style="stroke:#181818;stroke-width:0.5;" x1="232.0866" x2="500.0866" y1="73" y2="73"/><line style="stroke:#181818;stroke-width:0.5;" x1="232.0866" x2="500.0866" y1="81" y2="81"/><ellipse cx="242.0866" cy="94.6484" fill="#84BE84" rx="3" ry="3" style="stroke:#038048;stroke-width:1.0;"/><text fill="#000000" font-family="sans-serif" font-size="14" lengthAdjust="spacing" textLength="244" x="251.0866" y="97.9951">rate(ArithmeticFactor factor) double</text></g><g id="elem_AbstractCalculationDecorator"><rect codeLine="10" fill="#F1F1F1" height="64.2969" id="AbstractCalculationDecorator" rx="2.5" ry="2.5" style="stroke:#181818;stroke-width:0.5;" width="233" x="410.5866" y="165"/><ellipse cx="425.5866" cy="181" fill="#A9DCDF" rx="11" ry="11" style="stroke:#181818;stroke-width:1.0;"/><path d="M425.696,176.3438 L424.5397,181.4219 L426.8679,181.4219 L425.696,176.3438 Z M424.2116,174.1094 L427.196,174.1094 L430.5554,186.5 L428.1022,186.5 L427.3366,183.4375 L424.0554,183.4375 L423.3054,186.5 L420.8679,186.5 L424.2116,174.1094 Z " fill="#000000"/><text fill="#000000" font-family="sans-serif" font-size="14" font-style="italic" lengthAdjust="spacing" textLength="201" x="439.5866" y="185.8467">AbstractCalculationDecorator</text><line style="stroke:#181818;stroke-width:0.5;" x1="411.5866" x2="642.5866" y1="197" y2="197"/><polygon fill="none" points="421.5866,205.6484,425.5866,209.6484,421.5866,213.6484,417.5866,209.6484" style="stroke:#B38D22;stroke-width:1.0;"/><text fill="#000000" font-family="sans-serif" font-size="14" lengthAdjust="spacing" textLength="184" x="430.5866" y="213.9951">RateCalculation calculation</text><line style="stroke:#181818;stroke-width:0.5;" x1="411.5866" x2="642.5866" y1="221.2969" y2="221.2969"/></g><g id="elem_PercentageCalculation"><rect codeLine="13" fill="#F1F1F1" height="80.5938" id="PercentageCalculation" rx="2.5" ry="2.5" style="stroke:#181818;stroke-width:0.5;" width="375" x="108.5866" y="297"/><ellipse cx="214.3366" cy="313" fill="#ADD1B2" rx="11" ry="11" style="stroke:#181818;stroke-width:1.0;"/><path d="M217.3054,318.6406 Q216.7272,318.9375 216.0866,319.0781 Q215.446,319.2344 214.7429,319.2344 Q212.2429,319.2344 210.9147,317.5938 Q209.6022,315.9375 209.6022,312.8125 Q209.6022,309.6875 210.9147,308.0313 Q212.2429,306.375 214.7429,306.375 Q215.446,306.375 216.0866,306.5313 Q216.7429,306.6875 217.3054,306.9844 L217.3054,309.7031 Q216.6804,309.125 216.0866,308.8594 Q215.4929,308.5781 214.8679,308.5781 Q213.5241,308.5781 212.8366,309.6563 Q212.1491,310.7188 212.1491,312.8125 Q212.1491,314.9063 212.8366,315.9844 Q213.5241,317.0469 214.8679,317.0469 Q215.4929,317.0469 216.0866,316.7813 Q216.6804,316.5 217.3054,315.9219 L217.3054,318.6406 Z " fill="#000000"/><text fill="#000000" font-family="sans-serif" font-size="14" lengthAdjust="spacing" textLength="155" x="234.8366" y="317.8467">PercentageCalculation</text><line style="stroke:#181818;stroke-width:0.5;" x1="109.5866" x2="482.5866" y1="329" y2="329"/><line style="stroke:#181818;stroke-width:0.5;" x1="109.5866" x2="482.5866" y1="337" y2="337"/><ellipse cx="119.5866" cy="350.6484" fill="#84BE84" rx="3" ry="3" style="stroke:#038048;stroke-width:1.0;"/><text fill="#000000" font-family="sans-serif" font-size="14" lengthAdjust="spacing" textLength="349" x="128.5866" y="353.9951">PercentageCalculation(RateCalculation calculation)</text><ellipse cx="119.5866" cy="366.9453" fill="#84BE84" rx="3" ry="3" style="stroke:#038048;stroke-width:1.0;"/><text fill="#000000" font-family="sans-serif" font-size="14" lengthAdjust="spacing" textLength="244" x="128.5866" y="370.292">rate(ArithmeticFactor factor) double</text></g><g id="elem_ActualScoreCalculation"><rect codeLine="17" fill="#F1F1F1" height="96.8906" id="ActualScoreCalculation" rx="2.5" ry="2.5" style="stroke:#181818;stroke-width:0.5;" width="479" x="518.5866" y="289"/><ellipse cx="675.3366" cy="305" fill="#ADD1B2" rx="11" ry="11" style="stroke:#181818;stroke-width:1.0;"/><path d="M678.3054,310.6406 Q677.7272,310.9375 677.0866,311.0781 Q676.446,311.2344 675.7429,311.2344 Q673.2429,311.2344 671.9147,309.5938 Q670.6022,307.9375 670.6022,304.8125 Q670.6022,301.6875 671.9147,300.0313 Q673.2429,298.375 675.7429,298.375 Q676.446,298.375 677.0866,298.5313 Q677.7429,298.6875 678.3054,298.9844 L678.3054,301.7031 Q677.6804,301.125 677.0866,300.8594 Q676.4929,300.5781 675.8679,300.5781 Q674.5241,300.5781 673.8366,301.6563 Q673.1491,302.7188 673.1491,304.8125 Q673.1491,306.9063 673.8366,307.9844 Q674.5241,309.0469 675.8679,309.0469 Q676.4929,309.0469 677.0866,308.7813 Q677.6804,308.5 678.3054,307.9219 L678.3054,310.6406 Z " fill="#000000"/><text fill="#000000" font-family="sans-serif" font-size="14" lengthAdjust="spacing" textLength="157" x="695.8366" y="309.8467">ActualScoreCalculation</text><line style="stroke:#181818;stroke-width:0.5;" x1="519.5866" x2="996.5866" y1="321" y2="321"/><rect fill="none" height="6" style="stroke:#C82930;stroke-width:1.0;" width="6" x="526.5866" y="331.6484"/><text fill="#000000" font-family="sans-serif" font-size="14" lengthAdjust="spacing" textLength="98" x="538.5866" y="337.9951">double weight</text><line style="stroke:#181818;stroke-width:0.5;" x1="519.5866" x2="996.5866" y1="345.2969" y2="345.2969"/><ellipse cx="529.5866" cy="358.9453" fill="#84BE84" rx="3" ry="3" style="stroke:#038048;stroke-width:1.0;"/><text fill="#000000" font-family="sans-serif" font-size="14" lengthAdjust="spacing" textLength="453" x="538.5866" y="362.292">ActualScoreCalculation(RateCalculation calculation,double weight)</text><ellipse cx="529.5866" cy="375.2422" fill="#84BE84" rx="3" ry="3" style="stroke:#038048;stroke-width:1.0;"/><text fill="#000000" font-family="sans-serif" font-size="14" lengthAdjust="spacing" textLength="244" x="538.5866" y="378.5889">rate(ArithmeticFactor factor) double</text></g><g id="elem_UltimatelyScoreCalculation"><rect codeLine="22" fill="#F1F1F1" height="96.8906" id="UltimatelyScoreCalculation" rx="2.5" ry="2.5" style="stroke:#181818;stroke-width:0.5;" width="525" x="1032.5866" y="289"/><ellipse cx="1200.3366" cy="305" fill="#ADD1B2" rx="11" ry="11" style="stroke:#181818;stroke-width:1.0;"/><path d="M1203.3054,310.6406 Q1202.7272,310.9375 1202.0866,311.0781 Q1201.446,311.2344 1200.7429,311.2344 Q1198.2429,311.2344 1196.9147,309.5938 Q1195.6022,307.9375 1195.6022,304.8125 Q1195.6022,301.6875 1196.9147,300.0313 Q1198.2429,298.375 1200.7429,298.375 Q1201.446,298.375 1202.0866,298.5313 Q1202.7429,298.6875 1203.3054,298.9844 L1203.3054,301.7031 Q1202.6804,301.125 1202.0866,300.8594 Q1201.4929,300.5781 1200.8679,300.5781 Q1199.5241,300.5781 1198.8366,301.6563 Q1198.1491,302.7188 1198.1491,304.8125 Q1198.1491,306.9063 1198.8366,307.9844 Q1199.5241,309.0469 1200.8679,309.0469 Q1201.4929,309.0469 1202.0866,308.7813 Q1202.6804,308.5 1203.3054,307.9219 L1203.3054,310.6406 Z " fill="#000000"/><text fill="#000000" font-family="sans-serif" font-size="14" lengthAdjust="spacing" textLength="181" x="1220.8366" y="309.8467">UltimatelyScoreCalculation</text><line style="stroke:#181818;stroke-width:0.5;" x1="1033.5866" x2="1556.5866" y1="321" y2="321"/><rect fill="none" height="6" style="stroke:#C82930;stroke-width:1.0;" width="6" x="1040.5866" y="331.6484"/><text fill="#000000" font-family="sans-serif" font-size="14" lengthAdjust="spacing" textLength="120" x="1052.5866" y="337.9951">double maxScore</text><line style="stroke:#181818;stroke-width:0.5;" x1="1033.5866" x2="1556.5866" y1="345.2969" y2="345.2969"/><ellipse cx="1043.5866" cy="358.9453" fill="#84BE84" rx="3" ry="3" style="stroke:#038048;stroke-width:1.0;"/><text fill="#000000" font-family="sans-serif" font-size="14" lengthAdjust="spacing" textLength="499" x="1052.5866" y="362.292">UltimatelyScoreCalculation(RateCalculation calculation,double maxScore)</text><ellipse cx="1043.5866" cy="375.2422" fill="#84BE84" rx="3" ry="3" style="stroke:#038048;stroke-width:1.0;"/><text fill="#000000" font-family="sans-serif" font-size="14" lengthAdjust="spacing" textLength="244" x="1052.5866" y="378.5889">rate(ArithmeticFactor factor) double</text></g><g id="link_RateCalculation_AbstractCalculationDecorator"><path d="M423.1846,117.267 C443.9616,133.011 467.0146,150.48 486.1176,164.955 " fill="none" id="RateCalculation-backto-AbstractCalculationDecorator" style="stroke:#181818;stroke-width:1.0;stroke-dasharray:7.0,7.0;"/><polygon fill="none" points="418.8426,122.76,407.1306,105.101,427.2986,111.601,418.8426,122.76" style="stroke:#181818;stroke-width:1.0;"/></g><g id="link_AbstractCalculationDecorator_PercentageCalculation"><path d="M458.0596,239.387 C427.7256,257.573 392.2606,278.837 362.2616,296.824 " fill="none" id="AbstractCalculationDecorator-backto-PercentageCalculation" style="stroke:#181818;stroke-width:1.0;"/><polygon fill="none" points="454.4926,233.363,475.2456,229.082,461.6926,245.37,454.4926,233.363" style="stroke:#181818;stroke-width:1.0;"/></g><g id="link_AbstractCalculationDecorator_ActualScoreCalculation"><path d="M596.2256,239.454 C622.1956,255.024 651.9146,272.843 678.7396,288.926 " fill="none" id="AbstractCalculationDecorator-backto-ActualScoreCalculation" style="stroke:#181818;stroke-width:1.0;"/><polygon fill="none" points="592.4806,245.37,578.9276,229.082,599.6806,233.363,592.4806,245.37" style="stroke:#181818;stroke-width:1.0;"/></g><g id="link_AbstractCalculationDecorator_UltimatelyScoreCalculation"><path d="M663.5826,222.616 C765.6486,241.022 908.3626,266.759 1032.3036,289.11 " fill="none" id="AbstractCalculationDecorator-backto-UltimatelyScoreCalculation" style="stroke:#181818;stroke-width:1.0;"/><polygon fill="none" points="662.1696,229.474,643.7296,219.035,664.6546,215.696,662.1696,229.474" style="stroke:#181818;stroke-width:1.0;"/></g><g id="link_RateCalculation_ArithmeticFactor"><path codeLine="29" d="M301.9526,105.002 C196.4406,160.095 6,279.308 91.0866,386 C133.5991,439.307 323.0106,466.304 437.7376,478.0002 " fill="none" id="RateCalculation-to-ArithmeticFactor" style="stroke:#181818;stroke-width:1.0;stroke-dasharray:7.0,7.0;"/><polygon fill="#181818" points="442.8036,478.5117,434.2501,473.6293,437.8288,478.0103,433.4478,481.5889,442.8036,478.5117" style="stroke:#181818;stroke-width:1.0;"/></g><g id="link_PercentageCalculation_ArithmeticFactor"><path codeLine="30" d="M358.2946,378.087 C389.8826,398.188 428.2826,422.625 460.4706,443.108 " fill="none" id="PercentageCalculation-to-ArithmeticFactor" style="stroke:#181818;stroke-width:1.0;stroke-dasharray:7.0,7.0;"/><polygon fill="#181818" points="464.7676,445.843,459.3238,437.6354,460.5498,443.1578,455.0274,444.3838,464.7676,445.843" style="stroke:#181818;stroke-width:1.0;"/></g><g id="link_ActualScoreCalculation_ArithmeticFactor"><path codeLine="31" d="M683.4066,386.024 C654.6286,404.337 621.9696,425.12 593.9736,442.936 " fill="none" id="ActualScoreCalculation-to-ArithmeticFactor" style="stroke:#181818;stroke-width:1.0;stroke-dasharray:7.0,7.0;"/><polygon fill="#181818" points="589.5216,445.769,599.2621,444.3122,593.74,443.0848,594.9674,437.5627,589.5216,445.769" style="stroke:#181818;stroke-width:1.0;"/></g><g id="link_UltimatelyScoreCalculation_ArithmeticFactor"><path codeLine="32" d="M1046.7966,386.024 C899.2616,414.263 721.0486,448.375 616.2876,468.4263 " fill="none" id="UltimatelyScoreCalculation-to-ArithmeticFactor" style="stroke:#181818;stroke-width:1.0;stroke-dasharray:7.0,7.0;"/><polygon fill="#181818" points="611.3546,469.3705,620.9461,471.6072,616.2654,468.4305,619.4421,463.7498,611.3546,469.3705" style="stroke:#181818;stroke-width:1.0;"/></g></g></svg>