<?xml version="1.0" encoding="UTF-8" standalone="no"?><svg xmlns="http://www.w3.org/2000/svg" xmlns:xlink="http://www.w3.org/1999/xlink" contentScriptType="application/ecmascript" contentStyleType="text/css" height="575px" preserveAspectRatio="none" style="width:616px;height:575px;background:#FFFFFF;" version="1.1" viewBox="0 0 616 575" width="616px" zoomAndPan="magnify"><defs><filter height="300%" id="f1vkg5s5s23clw" width="300%" x="-1" y="-1"><feGaussianBlur result="blurOut" stdDeviation="2.0"/><feColorMatrix in="blurOut" result="blurOut2" type="matrix" values="0 0 0 0 0 0 0 0 0 0 0 0 0 0 0 0 0 0 .4 0"/><feOffset dx="4.0" dy="4.0" in="blurOut2" result="blurOut3"/><feBlend in="SourceGraphic" in2="blurOut3" mode="normal"/></filter></defs><g><rect fill="#FFFFFF" filter="url(#f1vkg5s5s23clw)" height="383.9922" style="stroke:#A80036;stroke-width:1.0;" width="10" x="178" y="98.2969"/><rect fill="#FFFFFF" filter="url(#f1vkg5s5s23clw)" height="362.8594" style="stroke:#A80036;stroke-width:1.0;" width="10" x="342" y="119.4297"/><rect fill="#FFFFFF" filter="url(#f1vkg5s5s23clw)" height="295.5938" style="stroke:#A80036;stroke-width:1.0;" width="10" x="506" y="148.5625"/><line style="stroke:#A80036;stroke-width:1.0;stroke-dasharray:5.0,5.0;" x1="183" x2="183" y1="88.2969" y2="491.2891"/><line style="stroke:#A80036;stroke-width:1.0;stroke-dasharray:5.0,5.0;" x1="347" x2="347" y1="88.2969" y2="491.2891"/><line style="stroke:#A80036;stroke-width:1.0;stroke-dasharray:5.0,5.0;" x1="511" x2="511" y1="88.2969" y2="491.2891"/><text fill="#000000" font-family="sans-serif" font-size="14" lengthAdjust="spacing" textLength="56" x="152" y="84.9951">安装人员</text><ellipse cx="183" cy="15" fill="#FEFECE" filter="url(#f1vkg5s5s23clw)" rx="8" ry="8" style="stroke:#A80036;stroke-width:2.0;"/><path d="M183,23 L183,50 M170,31 L196,31 M183,50 L170,65 M183,50 L196,65 " fill="none" filter="url(#f1vkg5s5s23clw)" style="stroke:#A80036;stroke-width:2.0;"/><text fill="#000000" font-family="sans-serif" font-size="14" lengthAdjust="spacing" textLength="56" x="152" y="503.2842">安装人员</text><ellipse cx="183" cy="516.5859" fill="#FEFECE" filter="url(#f1vkg5s5s23clw)" rx="8" ry="8" style="stroke:#A80036;stroke-width:2.0;"/><path d="M183,524.5859 L183,551.5859 M170,532.5859 L196,532.5859 M183,551.5859 L170,566.5859 M183,551.5859 L196,566.5859 " fill="none" filter="url(#f1vkg5s5s23clw)" style="stroke:#A80036;stroke-width:2.0;"/><rect fill="#FEFECE" filter="url(#f1vkg5s5s23clw)" height="30.2969" style="stroke:#A80036;stroke-width:1.5;" width="98" x="296" y="53"/><text fill="#000000" font-family="sans-serif" font-size="14" lengthAdjust="spacing" textLength="84" x="303" y="72.9951">一体机客户端</text><rect fill="#FEFECE" filter="url(#f1vkg5s5s23clw)" height="30.2969" style="stroke:#A80036;stroke-width:1.5;" width="98" x="296" y="490.2891"/><text fill="#000000" font-family="sans-serif" font-size="14" lengthAdjust="spacing" textLength="84" x="303" y="510.2842">一体机客户端</text><rect fill="#FFA500" filter="url(#f1vkg5s5s23clw)" height="30.2969" style="stroke:#A80036;stroke-width:1.5;" width="70" x="474" y="53"/><text fill="#000000" font-family="sans-serif" font-size="14" lengthAdjust="spacing" textLength="56" x="481" y="72.9951">授权中心</text><rect fill="#FFA500" filter="url(#f1vkg5s5s23clw)" height="30.2969" style="stroke:#A80036;stroke-width:1.5;" width="70" x="474" y="490.2891"/><text fill="#000000" font-family="sans-serif" font-size="14" lengthAdjust="spacing" textLength="56" x="481" y="510.2842">授权中心</text><rect fill="#FFFFFF" filter="url(#f1vkg5s5s23clw)" height="383.9922" style="stroke:#A80036;stroke-width:1.0;" width="10" x="178" y="98.2969"/><rect fill="#FFFFFF" filter="url(#f1vkg5s5s23clw)" height="362.8594" style="stroke:#A80036;stroke-width:1.0;" width="10" x="342" y="119.4297"/><rect fill="#FFFFFF" filter="url(#f1vkg5s5s23clw)" height="295.5938" style="stroke:#A80036;stroke-width:1.0;" width="10" x="506" y="148.5625"/><polygon fill="#A80036" points="330,115.4297,340,119.4297,330,123.4297,334,119.4297" style="stroke:#A80036;stroke-width:1.0;"/><line style="stroke:#A80036;stroke-width:1.0;" x1="188" x2="336" y1="119.4297" y2="119.4297"/><text fill="#000000" font-family="sans-serif" font-size="13" font-weight="bold" lengthAdjust="spacing" textLength="9" x="195" y="114.3638">1</text><text fill="#000000" font-family="sans-serif" font-size="13" lengthAdjust="spacing" textLength="117" x="208" y="114.3638">安装一体机应用程序</text><polygon fill="#A80036" points="494,144.5625,504,148.5625,494,152.5625,498,148.5625" style="stroke:#A80036;stroke-width:1.0;"/><line style="stroke:#A80036;stroke-width:1.0;" x1="352" x2="500" y1="148.5625" y2="148.5625"/><text fill="#000000" font-family="sans-serif" font-size="13" font-weight="bold" lengthAdjust="spacing" textLength="9" x="359" y="143.4966">2</text><text fill="#000000" font-family="sans-serif" font-size="13" lengthAdjust="spacing" textLength="91" x="372" y="143.4966">询问是否已注册</text><path d="M193,161.5625 L193,231.5625 L318,231.5625 L318,171.5625 L308,161.5625 L193,161.5625 " fill="#FBFB77" filter="url(#f1vkg5s5s23clw)" style="stroke:#A80036;stroke-width:1.0;"/><path d="M308,161.5625 L308,171.5625 L318,171.5625 L308,161.5625 " fill="#FBFB77" style="stroke:#A80036;stroke-width:1.0;"/><text fill="#000000" font-family="sans-serif" font-size="13" lengthAdjust="spacing" textLength="104" x="199" y="178.6294">若未注册授权中心</text><text fill="#000000" font-family="sans-serif" font-size="13" lengthAdjust="spacing" textLength="104" x="199" y="193.7622">返回统一状态后客</text><text fill="#000000" font-family="sans-serif" font-size="13" lengthAdjust="spacing" textLength="104" x="199" y="208.895">户端显示注册页面</text><text fill="#000000" font-family="sans-serif" font-size="13" lengthAdjust="spacing" textLength="0" x="203" y="224.0278"/><polygon fill="#A80036" points="330,258.2266,340,262.2266,330,266.2266,334,262.2266" style="stroke:#A80036;stroke-width:1.0;"/><line style="stroke:#A80036;stroke-width:1.0;" x1="188" x2="336" y1="262.2266" y2="262.2266"/><text fill="#000000" font-family="sans-serif" font-size="13" font-weight="bold" lengthAdjust="spacing" textLength="9" x="195" y="257.1606">3</text><text fill="#000000" font-family="sans-serif" font-size="13" lengthAdjust="spacing" textLength="117" x="208" y="257.1606">填写授权码、机器码</text><path d="M5,275.2266 L5,300.2266 L169,300.2266 L169,285.2266 L159,275.2266 L5,275.2266 " fill="#FBFB77" filter="url(#f1vkg5s5s23clw)" style="stroke:#A80036;stroke-width:1.0;"/><path d="M159,275.2266 L159,285.2266 L169,285.2266 L159,275.2266 " fill="#FBFB77" style="stroke:#A80036;stroke-width:1.0;"/><text fill="#000000" font-family="sans-serif" font-size="13" lengthAdjust="spacing" textLength="143" x="11" y="292.2935">机器码、授权码统一发放</text><polygon fill="#A80036" points="494,326.4922,504,330.4922,494,334.4922,498,330.4922" style="stroke:#A80036;stroke-width:1.0;"/><line style="stroke:#A80036;stroke-width:1.0;" x1="352" x2="500" y1="330.4922" y2="330.4922"/><text fill="#000000" font-family="sans-serif" font-size="13" font-weight="bold" lengthAdjust="spacing" textLength="9" x="359" y="325.4263">4</text><text fill="#000000" font-family="sans-serif" font-size="13" lengthAdjust="spacing" textLength="117" x="372" y="325.4263">调用一体机注册接口</text><path d="M521,343.4922 L521,413.4922 L607,413.4922 L607,353.4922 L597,343.4922 L521,343.4922 " fill="#FBFB77" filter="url(#f1vkg5s5s23clw)" style="stroke:#A80036;stroke-width:1.0;"/><path d="M597,343.4922 L597,353.4922 L607,353.4922 L597,343.4922 " fill="#FBFB77" style="stroke:#A80036;stroke-width:1.0;"/><text fill="#000000" font-family="sans-serif" font-size="13" lengthAdjust="spacing" textLength="65" x="527" y="360.5591">注册成功后</text><text fill="#000000" font-family="sans-serif" font-size="13" lengthAdjust="spacing" textLength="65" x="527" y="375.6919">签发一体机</text><text fill="#000000" font-family="sans-serif" font-size="13" lengthAdjust="spacing" textLength="65" x="527" y="390.8247">的公私钥、</text><text fill="#000000" font-family="sans-serif" font-size="13" lengthAdjust="spacing" textLength="52" x="527" y="405.9575">加密秘钥</text><polygon fill="#A80036" points="363,440.1563,353,444.1563,363,448.1563,359,444.1563" style="stroke:#A80036;stroke-width:1.0;"/><line style="stroke:#A80036;stroke-width:1.0;" x1="357" x2="510" y1="444.1563" y2="444.1563"/><text fill="#000000" font-family="sans-serif" font-size="13" font-weight="bold" lengthAdjust="spacing" textLength="9" x="369" y="439.0903">5</text><text fill="#000000" font-family="sans-serif" font-size="13" lengthAdjust="spacing" textLength="104" x="382" y="439.0903">公私钥、加密秘钥</text><polygon fill="#A80036" points="199,469.2891,189,473.2891,199,477.2891,195,473.2891" style="stroke:#A80036;stroke-width:1.0;"/><line style="stroke:#A80036;stroke-width:1.0;stroke-dasharray:2.0,2.0;" x1="193" x2="341" y1="473.2891" y2="473.2891"/><text fill="#000000" font-family="sans-serif" font-size="13" font-weight="bold" lengthAdjust="spacing" textLength="9" x="205" y="468.2231">6</text><text fill="#000000" font-family="sans-serif" font-size="13" lengthAdjust="spacing" textLength="104" x="218" y="468.2231">页面反馈注册成功</text></g></svg>